<?xml version="1.0" encoding="utf-8"?>
<!-- Generator: Adobe Illustrator 21.1.0, SVG Export Plug-In . SVG Version: 6.00 Build 0)  -->
<svg version="1.1" id="Layer_1" xmlns="http://www.w3.org/2000/svg" xmlns:xlink="http://www.w3.org/1999/xlink" x="0px" y="0px"
	 viewBox="0 0 2048 2560" style="enable-background:new 0 0 2048 2560;" xml:space="preserve">
<g>
	<g>
		<path d="M440.6,1574.6h1166.8c13.3,0,24,10.7,24,24V1768c0,13.3-10.7,24-24,24H440.6c-13.3,0-24-10.7-24-24v-169.4
			C416.6,1585.3,427.3,1574.6,440.6,1574.6L440.6,1574.6z M1583.4,1622.6H464.6V1744h1118.8V1622.6z"/>
		<path d="M483.3,857.8h1078.9c13.3,0,24,10.7,24,24v97.2c0,13.3-10.7,24-24,24H483.3c-13.3,0-24-10.7-24-24v-97.2
			C459.3,868.5,470,857.8,483.3,857.8z M1538.2,905.8H507.3v49.2h1030.9V905.8z"/>
		<path d="M1025.4,309c3.8,0.3,7.5,1.5,10.8,3.6l0-0.1l179.1,113.7c11.2,7.1,14.5,21.9,7.4,33.1c-5,7.8-13.7,11.8-22.3,11.1
			l-177.4-1.2l-179.3,1.2c-13.2,0.1-23.9-10.6-24-23.8c0-8.5,4.4-16,11.1-20.3l0-0.1l179.1-113.7
			C1014.6,309.5,1020.1,308.4,1025.4,309L1025.4,309z M1119.2,422.1L1023,361l-96.2,61.1l96.1-0.6v0l0.2,0L1119.2,422.1z"/>
		<path d="M909.3,422.2h227.5c13.3,0,24,10.7,24,24V570c0,13.3-10.7,24-24,24H909.3c-13.3,0-24-10.7-24-24V446.2
			C885.3,433,896,422.2,909.3,422.2L909.3,422.2z M1112.8,470.2H933.3V546h179.5V470.2z"/>
		<path d="M1014.7,256h16.7c13.3,0,24,10.7,24,24v53.1c0,13.3-10.7,24-24,24h-16.7c-13.3,0-24-10.7-24-24V280
			C990.7,266.7,1001.4,256,1014.7,256L1014.7,256z"/>
		<path d="M497.4,901.1c-10.7,7.8-25.7,5.5-33.5-5.2c-7.8-10.7-5.5-25.7,5.2-33.5l426-311.7c10.7-7.8,25.7-5.5,33.5,5.2
			c7.8,10.7,5.5,25.7-5.2,33.5L497.4,901.1L497.4,901.1z"/>
		<path d="M1576.9,862.4c10.7,7.8,13,22.8,5.2,33.5c-7.8,10.7-22.8,13-33.5,5.2l-426-311.7c-10.7-7.8-13-22.8-5.2-33.5
			c7.8-10.7,22.8-13,33.5-5.2L1576.9,862.4z"/>
		<path d="M576.9,1208.5c-13.3,0-24-10.7-24-24s10.7-24,24-24H709c13.3,0,24,10.7,24,24s-10.7,24-24,24H576.9L576.9,1208.5z"/>
		<path d="M618.9,978.9c0-13.3,10.7-24,24-24s24,10.7,24,24v619.6c0,13.3-10.7,24-24,24s-24-10.7-24-24V978.9z"/>
		<path d="M830.1,1208.5c-13.3,0-24-10.7-24-24s10.7-24,24-24h132.1c13.3,0,24,10.7,24,24s-10.7,24-24,24H830.1z"/>
		<path d="M872.1,978.9c0-13.3,10.7-24,24-24s24,10.7,24,24v619.6c0,13.3-10.7,24-24,24s-24-10.7-24-24V978.9z"/>
		<path d="M1083.3,1208.5c-13.3,0-24-10.7-24-24s10.7-24,24-24h132.1c13.3,0,24,10.7,24,24s-10.7,24-24,24H1083.3z"/>
		<path d="M1125.4,978.9c0-13.3,10.7-24,24-24s24,10.7,24,24v619.6c0,13.3-10.7,24-24,24s-24-10.7-24-24V978.9z"/>
		<path d="M1336.6,1208.5c-13.3,0-24-10.7-24-24s10.7-24,24-24h132.1c13.3,0,24,10.7,24,24s-10.7,24-24,24H1336.6z"/>
		<path d="M1378.6,978.9c0-13.3,10.7-24,24-24s24,10.7,24,24v619.6c0,13.3-10.7,24-24,24s-24-10.7-24-24V978.9z"/>
		<path d="M573.4,1598.6c0-13.3,10.7-24,24-24s24,10.7,24,24V1768c0,13.3-10.7,24-24,24s-24-10.7-24-24V1598.6z"/>
		<path d="M786.7,1598.6c0-13.3,10.7-24,24-24s24,10.7,24,24V1768c0,13.3-10.7,24-24,24s-24-10.7-24-24V1598.6z"/>
		<path d="M1000,1598.6c0-13.3,10.7-24,24-24s24,10.7,24,24V1768c0,13.3-10.7,24-24,24s-24-10.7-24-24V1598.6z"/>
		<path d="M1213.3,1598.6c0-13.3,10.7-24,24-24s24,10.7,24,24V1768c0,13.3-10.7,24-24,24s-24-10.7-24-24V1598.6z"/>
		<path d="M1426.6,1598.6c0-13.3,10.7-24,24-24s24,10.7,24,24V1768c0,13.3-10.7,24-24,24s-24-10.7-24-24V1598.6z"/>
	</g>
</g>
</svg>
