<?xml version="1.0" encoding="utf-8"?>
<!-- Generator: Adobe Illustrator 21.1.0, SVG Export Plug-In . SVG Version: 6.00 Build 0)  -->
<svg version="1.1"
	 id="Layer_1" xmlns:cc="http://creativecommons.org/ns#" xmlns:dc="http://purl.org/dc/elements/1.1/" xmlns:inkscape="http://www.inkscape.org/namespaces/inkscape" xmlns:rdf="http://www.w3.org/1999/02/22-rdf-syntax-ns#" xmlns:sodipodi="http://sodipodi.sourceforge.net/DTD/sodipodi-0.dtd" xmlns:svg="http://www.w3.org/2000/svg"
	 xmlns="http://www.w3.org/2000/svg" xmlns:xlink="http://www.w3.org/1999/xlink" x="0px" y="0px" viewBox="0 0 100 125"
	 style="enable-background:new 0 0 100 125;" xml:space="preserve">
<g transform="translate(0,-952.36218)">
	<g transform="matrix(-1,0,0,1,88.125983,958.15942)">
		<path d="M8.4,62.7c-0.4,0-0.8,0.1-1.2,0.3c-0.3,0.2-0.6,0.5-0.7,0.9c-1,2.2-4.1,7.6-5.5,12.7c-0.7,2.6-1.1,5.2,0,7.5
			s3.6,3.9,7.2,4.1c0.1,0,0.1,0,0.2,0c3.6-0.1,6.4-1.6,7.5-4c1.1-2.4,0.7-5,0-7.6c-0.7-2.6-1.9-5.2-3-7.4c-1.1-2.3-2.1-4.3-2.5-5.2
			c-0.1-0.4-0.4-0.7-0.7-1C9.1,62.9,8.8,62.7,8.4,62.7z M8.3,69.4c0.2,0.5,0.5,1.1,0.8,1.7c1.1,2.2,2.2,4.6,2.8,6.8
			c0.6,2.1,0.7,3.9,0.2,4.8c-0.4,0.9-1.2,1.6-3.9,1.7c-2.5-0.2-3.2-0.9-3.6-1.8c-0.4-1-0.4-2.7,0.2-4.9C5.5,75,7,72,8.3,69.4z"/>
		<path d="M31.9,0c-0.9,0-1.8,0.2-2.7,0.5c-1.8,0.8-3.4,2.3-5,4.3c-3,4-5.7,10.2-7.8,18.7c-0.8,0.7-1.6,1.5-2.3,2.3
			C9,30.8,5,36,2.6,40.4c-1.2,2.2-2.1,4.2-2.4,6c-0.4,1.8-0.2,3.7,1,5.1c0,0,0,0,0.1,0.1c0,0,0,0,0,0v0l0,0l35.1,35.1l0,0l0,0
			c1.4,1.4,3.3,1.5,5.2,1.1s3.9-1.2,6.1-2.4c4.4-2.4,9.5-6.4,14.5-11.4c5.1-5.1,9-10.2,11.5-14.6c1.2-2.2,2.1-4.2,2.4-6.1
			c0.4-1.8,0.2-3.7-1-5.1l0,0c0,0-0.1-0.1-0.1-0.1L40.3,13.5C39.7,7,38.1,2.7,34.8,0.8C33.9,0.2,32.8,0,31.9,0z M31.9,4
			c0.3,0,0.6,0.1,0.9,0.3c1.1,0.6,2.5,3,3.2,7.5c-0.5,0-0.9,0.1-1.4,0.2c-1.8,0.4-3.8,1.2-6,2.4c-2.1,1.2-4.4,2.7-6.8,4.6
			c1.7-5.3,3.6-9.2,5.5-11.6c1.3-1.6,2.5-2.6,3.4-3C31.2,4,31.6,4,31.9,4z M36.3,15.7C36.4,15.7,36.4,15.7,36.3,15.7
			c0.1,1.2,0.1,2.4,0.1,3.8c-0.4,0.9-0.8,1.8-1.4,2.8c-2.2,3.9-6,8.9-10.8,13.7s-9.8,8.6-13.7,10.8c-2,1.1-3.7,1.8-4.9,2
			c-1.2,0.2-1.6,0-1.6,0c-0.1,0-0.3-0.4,0-1.6c0.2-1.2,0.9-2.9,2-4.9c2.2-3.9,6-8.9,10.8-13.7c4.8-4.9,9.7-8.6,13.7-10.8
			c1.9-1.1,3.6-1.8,4.9-2C35.8,15.8,36.1,15.7,36.3,15.7z M40.6,19.5L72.1,51c0,0,0.2,0.4,0,1.6c-0.2,1.2-0.9,2.9-2,4.9
			c-2.2,3.9-6,8.9-10.8,13.7s-9.8,8.6-13.7,10.8c-2,1.1-3.7,1.8-4.9,2c-1.2,0.2-1.6,0-1.6,0L23.8,68.4c0-0.1-0.1-0.2-0.1-0.4
			c-1.4-3-1.9-5.1-2-6.3c-0.1-1.2,0.2-1.8,0.7-2.4c1-1.3,3.9-3.2,4.5-7.5c0,0,0-0.1,0-0.1c0.2-1.6-0.1-2.9-0.8-3.9
			c-0.7-1-1.5-1.5-2.1-1.9c-1.1-0.7-1.6-0.8-1.8-2.3c1.7-1.4,3.3-3,5-4.7c3.3-3.3,6.2-6.7,8.5-9.9c-0.4,3-1,6.4-1.8,10
			c-1.3,0.1-2.6,0.5-3.7,1.3l0,0c-0.3,0.2-0.6,0.5-0.9,0.7c-2.7,2.7-2.7,7.2,0,9.9l0,0c2.7,2.7,7.2,2.7,9.9,0l0,0
			c2.7-2.7,2.7-7.2,0-9.9c-0.4-0.4-0.9-0.8-1.4-1.1c1.7-7.6,2.6-14.1,2.8-19.5C40.5,20,40.6,19.8,40.6,19.5z M34,42.8
			c0.2,0,0.4,0,0.6,0c0.1,0.1,0.3,0.1,0.5,0.1c0.4,0.1,0.8,0.4,1.1,0.7c1.2,1.2,1.2,3,0,4.2c-1.2,1.2-3,1.2-4.2,0l0,0l0,0
			c-1.2-1.2-1.2-3,0-4.2c0.1-0.1,0.2-0.2,0.4-0.3C32.8,43.1,33.4,42.9,34,42.8z M18.9,46.1c0.8,1.5,2,2.5,2.8,3
			c0.6,0.4,0.9,0.7,1,0.9c0.1,0.2,0.2,0.4,0.2,1.3c-0.4,2.7-2.1,3.3-3.8,5.7c-0.9,1.2-1.6,2.9-1.5,5c0,0.1,0,0.2,0,0.4l-9.9-9.9
			c1.5-0.4,3.1-1.1,4.8-2.1C14.5,49.2,16.7,47.8,18.9,46.1z"/>
	</g>
</g>
</svg>
