<?xml version="1.0" encoding="utf-8"?>
<!-- Generator: Adobe Illustrator 21.1.0, SVG Export Plug-In . SVG Version: 6.00 Build 0)  -->
<svg version="1.1" id="Layer_1" xmlns="http://www.w3.org/2000/svg" xmlns:xlink="http://www.w3.org/1999/xlink" x="0px" y="0px"
	 viewBox="0 0 100 125" style="enable-background:new 0 0 100 125;" xml:space="preserve">
<title>Artboard 57</title>
<path d="M86.5,49.3l-11.7-10V25.8c0-0.8-0.7-1.5-1.5-1.5h-7.8c-0.8,0-1.5,0.7-1.5,1.5V30L51,18.9c-0.6-0.5-1.4-0.5-2,0L13.5,49.3
	c-0.6,0.5-0.7,1.5-0.2,2.1c0.3,0.3,0.7,0.5,1.2,0.5h10.7V80c0,0.8,0.7,1.5,1.5,1.5H40c0.8,0,1.5-0.7,1.5-1.5s-0.7-1.5-1.5-1.5H28.2
	V50.4c0-0.8-0.7-1.5-1.5-1.5h-8.1L50,22l31.4,26.9h-8.1c-0.8,0-1.5,0.7-1.5,1.5v28.1H61.4c-0.8,0-1.5,0.7-1.5,1.5s0.7,1.5,1.5,1.5
	h11.9c0.8,0,1.5-0.7,1.5-1.5V51.9h10.7c0.8,0,1.5-0.6,1.5-1.5C87,50,86.8,49.6,86.5,49.3L86.5,49.3z M67,27.3h4.8v9.4L67,32.6V27.3z
	 M59.7,52.8h0.5v0.5c0,0.8,0.7,1.5,1.5,1.5H66c0.8,0,1.5-0.7,1.5-1.5v-8.8c0-0.8-0.7-1.5-1.5-1.5h-4.3c-0.8,0-1.5,0.7-1.5,1.5V45
	h-0.3l-1.8-1.6c-0.3-0.2-0.6-0.4-1-0.4h-7.9c-9.3,0-16.8,5.6-16.8,10.3c0,0.8,0.7,1.5,1.5,1.5h10.7l0.8,0.5l1,4.9l-1.1,26.1
	c0,0.8,0.6,1.5,1.4,1.6c0,0,0,0,0.1,0h8c0.8,0,1.5-0.7,1.5-1.5c0,0,0,0,0-0.1L55,60.1l1-4.9L59.7,52.8z M63.2,46h1.3v5.8h-1.3V46z
	 M35.9,51.8c1.5-2.6,6.6-5.8,13.3-5.8h7.3l1.8,1.6c0.3,0.2,0.6,0.4,1,0.4h0.9v1.9h-0.9c-0.3,0-0.6,0.1-0.8,0.2l-4.2,2.7h-7.1
	L45.8,52c-0.2-0.1-0.5-0.2-0.8-0.2L35.9,51.8z M48.2,84.8L49.3,60c0-0.1,0-0.2,0-0.4l-0.8-3.9h4.3l-0.8,3.9C52.1,59.8,52,59.9,52,60
	l1.1,24.7L48.2,84.8z"/>
</svg>
